<svg width="96" height="94" viewBox="0 0 96 94" fill="none" xmlns="http://www.w3.org/2000/svg">
<g filter="url(#filter0_d_107_2)">
<path d="M48.3843 84.9992L5.25 42.6087L12.687 34.2292L48.3843 68.7331L83.0901 34.2292L90.527 42.6087L48.3843 84.9992Z" fill="url(#paint0_linear_107_2)"/>
<path d="M48.3843 84.9992L5.25 42.6087L12.687 34.2292L48.3843 68.7331L83.0901 34.2292L90.527 42.6087L48.3843 84.9992Z" stroke="#55DFCF"/>
</g>
<g filter="url(#filter1_d_107_2)">
<path d="M48.3843 52.467L5.25 10.0765L12.687 1.69696L48.3843 36.2009L83.0901 1.69696L90.527 10.0765L48.3843 52.467Z" fill="url(#paint1_linear_107_2)"/>
<path d="M48.3843 52.467L5.25 10.0765L12.687 1.69696L48.3843 36.2009L83.0901 1.69696L90.527 10.0765L48.3843 52.467Z" stroke="#55DFCF"/>
</g>
<defs>
<filter id="filter0_d_107_2" x="0.5606" y="33.5015" width="94.6522" height="60.2028" filterUnits="userSpaceOnUse" color-interpolation-filters="sRGB">
<feFlood flood-opacity="0" result="BackgroundImageFix"/>
<feColorMatrix in="SourceAlpha" type="matrix" values="0 0 0 0 0 0 0 0 0 0 0 0 0 0 0 0 0 0 127 0" result="hardAlpha"/>
<feOffset dy="4"/>
<feGaussianBlur stdDeviation="2"/>
<feComposite in2="hardAlpha" operator="out"/>
<feColorMatrix type="matrix" values="0 0 0 0 0 0 0 0 0 0 0 0 0 0 0 0 0 0 0.25 0"/>
<feBlend mode="normal" in2="BackgroundImageFix" result="effect1_dropShadow_107_2"/>
<feBlend mode="normal" in="SourceGraphic" in2="effect1_dropShadow_107_2" result="shape"/>
</filter>
<filter id="filter1_d_107_2" x="0.5606" y="0.969299" width="94.6522" height="60.2028" filterUnits="userSpaceOnUse" color-interpolation-filters="sRGB">
<feFlood flood-opacity="0" result="BackgroundImageFix"/>
<feColorMatrix in="SourceAlpha" type="matrix" values="0 0 0 0 0 0 0 0 0 0 0 0 0 0 0 0 0 0 127 0" result="hardAlpha"/>
<feOffset dy="4"/>
<feGaussianBlur stdDeviation="2"/>
<feComposite in2="hardAlpha" operator="out"/>
<feColorMatrix type="matrix" values="0 0 0 0 0 0 0 0 0 0 0 0 0 0 0 0 0 0 0.25 0"/>
<feBlend mode="normal" in2="BackgroundImageFix" result="effect1_dropShadow_107_2"/>
<feBlend mode="normal" in="SourceGraphic" in2="effect1_dropShadow_107_2" result="shape"/>
</filter>
<linearGradient id="paint0_linear_107_2" x1="47.8885" y1="34.2292" x2="47.8885" y2="84.9992" gradientUnits="userSpaceOnUse">
<stop stop-color="#3FA693"/>
<stop offset="1" stop-color="#AD7695"/>
</linearGradient>
<linearGradient id="paint1_linear_107_2" x1="47.8885" y1="1.69696" x2="47.8885" y2="52.467" gradientUnits="userSpaceOnUse">
<stop stop-color="#3FA693"/>
<stop offset="1" stop-color="#AD7695"/>
</linearGradient>
</defs>
</svg>
